<?xml version="1.0" encoding="UTF-8"?>
<svg viewBox="0 0 737.62 177.16" xmlns="http://www.w3.org/2000/svg">
<defs>
<style>.cls-1{fill:#0166ff;}</style>
</defs>
<g data-name="Capa 2">
<g data-name="Capa 1">
<g data-name="#0166ffff">
<path class="cls-1" d="M22.31.38C35.12-1.94,48.62,6.7,51.93,19.26A26.46,26.46,0,1,1,.07,25.06C.47,12.94,10.32,2.07,22.31.38Z"/>
<path class="cls-1" d="M84.3.39a26.48,26.48,0,0,1,30,32.19C111.69,44.79,99.48,53.91,87,52.93c-13-.46-24.36-11.8-24.86-24.78C61,15,71.25,2.24,84.3.39Z"/>
<path class="cls-1" d="M144.58.75a26.47,26.47,0,1,1-19.36,18.41A26.59,26.59,0,0,1,144.58.75Z"/>
<path class="cls-1" d="m497.38 50.41h15.34c-4.63 5.68-9.41 11.22-14 17-4.19 0.14-8.38 0.09-12.56 0.07q5.63-8.55 11.22-17.07z"/>
<path class="cls-1" d="m601.4 50.44c5.72-2.95 13.17 2.28 12.33 8.65-0.2 6.57-8.78 10.41-13.86 6.29-5.28-3.55-4.38-12.55 1.53-14.94z"/>
<path class="cls-1" d="m436 56c6.33-5.94 15.67-3.2 23.46-3.84q0 6.48 0 13c-3.42 0-6.88-0.31-10.27 0.24-4 1.66-2.23 6.89-2.59 10.24h12.9q0 7.07 0 14.11h-12.87v45.74h-14.76q0-22.87 0-45.74h-9.93q0-7.07 0-14.13h9.92c0.14-6.62-1.2-14.57 4.14-19.62z"/>
<path class="cls-1" d="m208.68 53.37h64.57q0 7.34 0 14.69-12.3 0-24.61 0 0 33.71 0 67.43h-15.31q-0.06-33.72 0-67.43-12.33-0.06-24.65-0.06c0-4.85 0.01-9.74 0-14.63z"/>
<path class="cls-1" d="m335.18 53.35h14.76v82.12h-14.76q0-41.07 0-82.12z"/>
<path class="cls-1" d="m82.49 62.83a26.48 26.48 0 1 1-15 9.73 26.57 26.57 0 0 1 15-9.73z"/>
<path class="cls-1" d="M486.6,74.86c9-1.49,18.91.69,25.88,6.84,13.28,11.57,13.64,34.64.95,46.77-11.17,10.76-30.71,10.9-42.11.43-12.93-11.81-13-34.74-.14-46.62a29.43,29.43,0,0,1,15.42-7.42m.91,13.8c-13,4-14.94,23.69-4.48,31.43a15.41,15.41,0,0,0,19.71-1.25c6.32-6.25,6.85-17.12,1.95-24.36A15.41,15.41,0,0,0,487.51,88.66Z"/>
<path class="cls-1" d="m546.12 81.7c9.46-10.79 28.92-9.39 36.38 3a28.29 28.29 0 0 1 4.06 15.3v35.45h-14.74v-34.37a13.31 13.31 0 0 0-2.95-8.86c-5.14-6.08-16.16-5.68-20.6 1-1.81 2.55-2.21 5.76-2.16 8.82q0 16.68 0 33.37h-14.72q0-29.94 0-59.89h13.53z"/>
<path class="cls-1" d="m641.78 75.88c9.05-2.72 19.64-1.85 27.33 4 5.64 4.22 9.1 10.73 10.81 17.46q-7.33 0-14.66 0c-1.4-2.6-2.85-5.38-5.42-7-6.27-4.27-15.65-2.63-20.2 3.42a20 20 0 0 0 0.11 23.66c4.68 6.09 14.38 7.61 20.56 3 2.44-1.78 3.7-4.61 4.94-7.26h14.65c-1.78 7.83-6.09 15.45-13.16 19.62-12.88 7.47-31.36 4-39.93-8.39-6.25-8.87-7.24-20.86-3.57-30.95a28.88 28.88 0 0 1 18.54-17.56z"/>
<path class="cls-1" d="m699.11 77.19c8.71-4 19.48-3.86 27.81 1a22 22 0 0 1 10.67 18.88c0.07 12.8 0 25.59 0 38.39h-12.36c-0.42-2-0.83-4.08-1.21-6.12-8.22 8.83-23.15 9.68-32.68 2.56-7.41-5.49-8.47-16.76-3.61-24.26 3.35-5.19 9.43-7.9 15.38-8.74 6.59-0.87 13.27-0.25 19.91-0.45-0.18-3.48-0.73-7.35-3.56-9.74-5.61-5-15.94-2.37-17.85 5.13h-14.63c1.15-7.06 5.52-13.62 12.13-16.63m1.79 35.73c-2.89 3.58-1.25 9.76 3.25 11.13 5.85 1.93 13.47 0.42 16.85-5.07 1.77-2.76 1.83-6.13 2-9.29-4.63 0-9.26-0.14-13.87 0-2.98 0.17-6.25 0.82-8.23 3.21z"/>
<path class="cls-1" d="m275.21 83.2c10.46-10.8 29.36-11.85 40.8-2 8.39 6.88 11.89 18.49 9.95 29-14.93 0-29.86-0.07-44.79 0.06 1.06 4.24 3 8.54 6.71 11.08 6.68 4.92 17.16 3.46 21.83-3.56h15.16a28.19 28.19 0 0 1-17 17c-10.36 3.55-22.76 1.82-31.11-5.51-13.03-11.27-13.59-33.77-1.55-46.07m10.85 8c-2.52 2.44-3.76 5.78-4.83 9h30.64c-0.88-3.12-1.85-6.37-4.12-8.79-5.37-6.26-16.07-6.03-21.69-0.24z"/>
<path class="cls-1" d="m366.24 84.25c10.22-11.74 30-13.23 41.78-3.06 8.39 6.89 11.89 18.5 10 29-14.93 0-29.86-0.06-44.79 0.06 1 4 2.72 8.06 6.12 10.63 6.62 5.43 17.63 4.13 22.43-3.12h15.14a28.19 28.19 0 0 1-16.16 16.75c-10.52 3.94-23.31 2.29-31.87-5.2-12.72-11.05-13.63-32.6-2.6-45.12m10.9 8c-2 2.28-2.93 5.2-3.89 8q15.3 0 30.62 0c-0.88-3.12-1.84-6.36-4.1-8.79-5.74-6.62-17.36-5.96-22.68 0.8z"/>
<path class="cls-1" d="m597.69 75.6h14.74v59.87h-14.74q-0.02-29.94 0-59.87z"/>
<path class="cls-1" d="m83.53 124.69c14.66-3.29 30.27 8.31 31.34 23.31 1.9 14.41-10.14 28.63-24.67 29.09-13.78 1.24-27-10.1-28-23.89-1.56-13.2 8.31-26.28 21.33-28.51z"/>
</g>
</g>
</g>
</svg>
